<svg width="158" height="110" viewBox="0 0 158 110" fill="none" xmlns="http://www.w3.org/2000/svg">
<path fill-rule="evenodd" clip-rule="evenodd" d="M58.25 0.635939C57.365 0.992939 57 4.11294 57 11.3229C57 23.6609 58.426 27.0339 65.584 31.6299C75.35 37.8999 76 38.8839 76 47.4099V54.9739H69.607C62.118 54.9739 61.565 54.3019 62.554 46.3919C63.596 38.0449 62.506 36.9739 52.965 36.9739H45L44.894 34.2239C44.556 25.4429 45.364 24.0149 50.691 23.9889C54.224 23.9719 55.317 22.9629 54.396 20.5639C53.952 19.4079 52.439 18.9739 48.848 18.9739C44.938 18.9739 43.398 19.4849 41.455 21.4289C39.241 23.6419 39 24.7009 39 32.2289C39 37.3859 39.458 41.0319 40.2 41.7739C40.928 42.5019 44.467 42.9739 49.2 42.9739H57V48.9179C57 53.7589 57.448 55.3829 59.412 57.6679C61.694 60.3219 62.344 60.4929 71.412 60.8209L81 61.1669L80.996 50.3209C80.992 37.7019 79.879 34.9989 73.028 30.9739C63.112 25.1479 62.63 24.1819 62.903 10.6759L63 5.87894L69.25 6.17594L75.5 6.47394L76 14.9739L76.5 23.4739L85 23.9739L93.5 24.4739V30.4739V36.4739L88.689 36.7809C84.118 37.0729 83.894 37.2229 84.189 39.7809C84.483 42.3249 84.787 42.4719 89.689 42.4349C98.023 42.3709 99.131 40.7389 98.784 29.0379L98.5 19.4739L90 18.9739L81.5 18.4739L81.239 13.4739C80.802 5.11594 80.267 3.99794 75.715 1.93094C71.725 0.119941 61.422 -0.644061 58.25 0.635939Z" fill="#35363A"/>
<path d="M9.455 101.878C9.25167 101.959 8.94667 102.041 8.54 102.122C8.13333 102.244 7.686 102.305 7.198 102.305C5.44933 102.305 4.575 101.573 4.575 100.109V79.43C4.575 78.4947 4.73767 77.7627 5.063 77.234C5.429 76.6647 6.01867 76.1157 6.832 75.587C7.88933 74.8957 9.31267 74.306 11.102 73.818C12.932 73.2893 14.9857 73.025 17.263 73.025C20.5163 73.025 22.143 73.8383 22.143 75.465C22.143 75.8717 22.082 76.258 21.96 76.624C21.838 76.9493 21.6753 77.234 21.472 77.478C21.0653 77.3967 20.5367 77.3153 19.886 77.234C19.2353 77.1527 18.5847 77.112 17.934 77.112C16.0633 77.112 14.4163 77.3153 12.993 77.722C11.5697 78.088 10.3903 78.5353 9.455 79.064V101.878ZM27.3933 90.776C28.4913 96.1033 31.9886 98.767 37.8853 98.767C39.5933 98.767 41.1386 98.4823 42.5213 97.913C43.904 97.3437 45.002 96.7337 45.8153 96.083C46.7913 96.6523 47.2793 97.425 47.2793 98.401C47.2793 98.9703 47.015 99.5193 46.4863 100.048C45.9983 100.577 45.307 101.044 44.4123 101.451C43.5583 101.858 42.5416 102.183 41.3623 102.427C40.2236 102.671 38.9833 102.793 37.6413 102.793C32.924 102.793 29.1826 101.512 26.4173 98.95C23.6926 96.388 22.3303 92.6467 22.3303 87.726C22.3303 85.408 22.6556 83.3543 23.3063 81.565C23.9976 79.735 24.933 78.1897 26.1123 76.929C27.3323 75.6683 28.776 74.7127 30.4433 74.062C32.1106 73.3707 33.9203 73.025 35.8723 73.025C37.7023 73.025 39.39 73.33 40.9353 73.94C42.4806 74.55 43.8023 75.4243 44.9003 76.563C46.039 77.661 46.9133 78.9827 47.5233 80.528C48.174 82.0327 48.4993 83.7 48.4993 85.53C48.4993 86.4247 48.296 87.0753 47.8893 87.482C47.4826 87.848 46.9133 88.0717 46.1813 88.153L27.3933 90.776ZM35.8113 76.99C33.3306 76.99 31.277 77.8643 29.6503 79.613C28.0236 81.321 27.1696 83.7813 27.0883 86.994L43.8633 84.676C43.66 82.4393 42.867 80.6093 41.4843 79.186C40.1423 77.722 38.2513 76.99 35.8113 76.99ZM87.9391 82.846C87.9391 80.8533 87.3698 79.3893 86.2311 78.454C85.0925 77.5187 83.5675 77.051 81.6561 77.051C79.0128 77.051 76.6541 77.9863 74.5801 79.857C74.8241 80.6703 74.9461 81.5447 74.9461 82.48V101.878C74.7428 101.959 74.4175 102.041 73.9701 102.122C73.5635 102.244 73.1365 102.305 72.6891 102.305C70.9405 102.305 70.0661 101.573 70.0661 100.109V82.846C70.0661 80.8533 69.4968 79.3893 68.3581 78.454C67.2195 77.5187 65.6741 77.051 63.7221 77.051C62.4208 77.051 61.1805 77.2543 60.0011 77.661C58.8625 78.0677 57.8865 78.5353 57.0731 79.064V101.878C56.8698 101.959 56.5648 102.041 56.1581 102.122C55.7515 102.244 55.3041 102.305 54.8161 102.305C53.0675 102.305 52.1931 101.573 52.1931 100.109V79.308C52.1931 78.4947 52.3558 77.8237 52.6811 77.295C53.0471 76.7257 53.6571 76.1563 54.5111 75.587C55.6091 74.8957 56.9918 74.306 58.6591 73.818C60.3671 73.2893 62.0751 73.025 63.7831 73.025C65.7758 73.025 67.5448 73.33 69.0901 73.94C70.6355 74.5093 71.8148 75.3023 72.6281 76.319C73.6855 75.3837 75.0071 74.611 76.5931 74.001C78.1791 73.3503 79.9888 73.025 82.0221 73.025C85.3161 73.025 87.9391 73.818 89.8911 75.404C91.8431 76.9493 92.8191 79.3487 92.8191 82.602V101.878C92.6158 101.959 92.2905 102.041 91.8431 102.122C91.4365 102.244 91.0095 102.305 90.5621 102.305C88.8135 102.305 87.9391 101.573 87.9391 100.109V82.846ZM124.808 87.909C124.808 90.1863 124.483 92.24 123.832 94.07C123.181 95.9 122.246 97.4657 121.026 98.767C119.847 100.068 118.403 101.065 116.695 101.756C114.987 102.447 113.076 102.793 110.961 102.793C108.846 102.793 106.935 102.447 105.227 101.756C103.519 101.065 102.055 100.068 100.835 98.767C99.6149 97.4657 98.6796 95.9 98.0289 94.07C97.3782 92.24 97.0529 90.1863 97.0529 87.909C97.0529 85.6317 97.3782 83.578 98.0289 81.748C98.7202 79.918 99.6759 78.3523 100.896 77.051C102.116 75.7497 103.58 74.7533 105.288 74.062C106.996 73.3707 108.887 73.025 110.961 73.025C113.035 73.025 114.926 73.3707 116.634 74.062C118.342 74.7533 119.786 75.7497 120.965 77.051C122.185 78.3523 123.12 79.918 123.771 81.748C124.462 83.578 124.808 85.6317 124.808 87.909ZM110.961 77.051C108.196 77.051 106.02 78.0067 104.434 79.918C102.848 81.8293 102.055 84.493 102.055 87.909C102.055 91.3657 102.828 94.0497 104.373 95.961C105.959 97.8317 108.155 98.767 110.961 98.767C113.767 98.767 115.943 97.8113 117.488 95.9C119.033 93.9887 119.806 91.325 119.806 87.909C119.806 84.493 119.013 81.8293 117.427 79.918C115.882 78.0067 113.726 77.051 110.961 77.051ZM141.567 73.025C143.437 73.025 145.186 73.33 146.813 73.94C148.439 74.55 149.842 75.465 151.022 76.685C152.242 77.905 153.177 79.4503 153.828 81.321C154.519 83.1917 154.865 85.3877 154.865 87.909C154.865 90.471 154.519 92.6873 153.828 94.558C153.136 96.4287 152.16 97.974 150.9 99.194C149.68 100.414 148.195 101.329 146.447 101.939C144.698 102.508 142.787 102.793 140.713 102.793C138.72 102.793 136.91 102.549 135.284 102.061C133.698 101.614 132.396 101.085 131.38 100.475C130.526 99.9463 129.936 99.438 129.611 98.95C129.285 98.4213 129.123 97.73 129.123 96.876V62.472C129.326 62.3907 129.631 62.3093 130.038 62.228C130.485 62.106 130.953 62.045 131.441 62.045C133.149 62.045 134.003 62.777 134.003 64.241V75.16C134.897 74.5907 135.955 74.1027 137.175 73.696C138.435 73.2487 139.899 73.025 141.567 73.025ZM140.835 77.051C139.411 77.051 138.11 77.3153 136.931 77.844C135.792 78.332 134.816 78.9217 134.003 79.613V96.876C134.613 97.3233 135.487 97.7503 136.626 98.157C137.805 98.5637 139.167 98.767 140.713 98.767C142.095 98.767 143.336 98.5637 144.434 98.157C145.572 97.7097 146.548 97.0387 147.362 96.144C148.175 95.2493 148.805 94.131 149.253 92.789C149.7 91.4063 149.924 89.7797 149.924 87.909C149.924 86.0383 149.7 84.4117 149.253 83.029C148.805 81.6463 148.175 80.528 147.362 79.674C146.548 78.7793 145.572 78.1287 144.434 77.722C143.336 77.2747 142.136 77.051 140.835 77.051Z" fill="#ED5A23"/>
</svg>
